# AST/ASF file generated using VICON BodyLanguage
# -----------------------------------------------
:version 1.10
:name VICON
:units
  mass 1.0
  length 0.45
  angle deg
:documentation
   .ast/.asf automatically generated from VICON data using
   VICON BodyBuilder and BodyLanguage model FoxedUp or BRILLIANT.MOD
:root
   order TX TY TZ RX RY RZ
   axis XYZ
   position 0 0 0  
   orientation 0 0 0 
:bonedata
  begin
     id 1 
     name lhipjoint
     direction 0.650112 -0.723553 0.232005 
     length 2.45805 
     axis 0 0 0  XYZ
  end
  begin
     id 2 
     name lfemur
     direction 0.34202 -0.939693 0  
     length 7.00073  
     axis 0 0 20  XYZ
    dof rx ry rz
    limits (-160.0 20.0)
           (-70.0 70.0)
           (-60.0 70.0)
  end
  begin
     id 3 
     name ltibia
     direction 0.34202 -0.939693 0   
     length 7.8748   
     axis 0 0 20   XYZ
    dof rx
    limits (-10.0 170.0)
  end
  begin
     id 4 
     name lfoot
     direction 0.0542825 -0.14914 0.987325   
     length 1.75978   
     axis -90 7.62852e-016 20   XYZ
    dof rx rz
    limits (-45.0 90.0)
           (-70.0 20.0)
  end
  begin
     id 5 
     name ltoes
     direction 1.53509e-011 -4.21906e-011 1   
     length 0.893912   
     axis -90 7.62852e-016 20   XYZ
    dof rx
    limits (-90.0 20.0)
  end
  begin
     id 6 
     name rhipjoint
     direction -0.637897 -0.733345 0.235145   
     length 2.42522  
     axis 0 0 0  XYZ 
  end
  begin
     id 7 
     name rfemur
     direction -0.34202 -0.939693 0   
     length 7.02549   
     axis 0 0 -20   XYZ
    dof rx ry rz
    limits (-160.0 20.0)
           (-70.0 70.0)
           (-70.0 60.0)
  end
  begin
     id 8 
     name rtibia
     direction -0.34202 -0.939693 0   
     length 7.71512   
     axis 0 0 -20   XYZ
    dof rx
    limits (-10.0 170.0)
 end
 begin
     id 9 
     name rfoot
     direction -0.0822618 -0.226012 0.970645   
     length 1.90014  
     axis -90 -7.62852e-016 -20   XYZ
    dof rx rz
    limits (-45.0 90.0)
           (-20.0 70.0)
  end
  begin
     id 10 
     name rtoes
     direction -1.53542e-011 -4.21872e-011 1   
     length 0.957341   
     axis -90 -7.62852e-016 -20   XYZ
    dof rx
    limits (-90.0 20.0)
  end
  begin
     id 11 
     name lowerback
     direction -0.0022947 0.999774 -0.0211557   
     length 1.89909   
     axis 0 0 0   XYZ
    dof rx ry rz
    limits (-20.0 45.0)
           (-30.0 30.0)
           (-30.0 30.0)
  end
  begin
     id 12 
     name upperback
     direction 0.0107737 0.998635 0.0511027   
     length 1.8853   
     axis 0 0 0   XYZ
    dof rx ry rz
    limits (-20.0 45.0)
           (-30.0 30.0)
           (-30.0 30.0)
  end
  begin
     id 13 
     name thorax
     direction 0.011824 0.998136 0.0598754   
     length 1.88911   
     axis 0 0 0   XYZ
    dof rx ry rz
    limits (-20.0 45.0)
           (-30.0 30.0)
           (-30.0 30.0)
  end
  begin
     id 14 
     name lowerneck
     direction -0.0685355 0.990319 0.120714   
     length 1.91222   
     axis 0 0 0   XYZ
    dof rx ry rz
    limits (-20.0 45.0)
           (-30.0 30.0)
           (-30.0 30.0)
  end
  begin
     id 15 
     name upperneck
     direction 0.0886204 0.955665 -0.280805   
     length 1.92526   
     axis 0 0 0   XYZ
    dof rx ry rz
    limits (-20.0 45.0)
           (-30.0 30.0)
           (-30.0 30.0)
  end
  begin
     id 16
     name head
     direction 0.0233423 0.993502 -0.111393  
     length 1.96056  
     axis 0 0 0   XYZ
    dof rx ry rz
    limits (-20.0 45.0)
           (-30.0 30.0)
           (-30.0 30.0)
  end
  begin
     id 17 
     name lclavicle
     direction 0.941873 0.32922 0.0670041  
     length 3.31705  
     axis 0 0 0   XYZ
    dof ry rz
    limits (-20.0 10.0)
           (0.0 20.0)
  end
  begin
     id 18 
     name lhumerus
     direction 1 -4.4898e-011 3.38707e-028   
     length 5.29277   
     axis 180 -30 -90   XYZ
    dof rx ry rz
    limits (-60.0 90.0)
           (-90.0 90.0)
           (-90.0 90.0)
  end
  begin
     id 19
     name lradius
     direction 1 -4.48952e-011 1.63213e-028   
     length 2.85226   
     axis 180 -30 -90   XYZ
    dof rx
    limits (-10.0 170.0)
  end
  begin
     id 20
     name lwrist
     direction 1 -4.49001e-011 1.27856e-027   
     length 1.42613   
     axis -1.61767e-015 90 90   XYZ
    dof ry
    limits (-180.0 0.0)
 end
  begin
     id 21 
     name lhand
     direction 1 -4.48976e-011 2.55931e-027   
     length 0.602097   
     axis -1.63363e-015 90 90   XYZ
    dof rx rz
    limits (-90.0 90.0)
           (-45.0 45.0)
  end
  begin
     id 22 
     name lfingers
     direction 1 -4.48986e-011 5.11684e-027   
     length 0.485426   
     axis -3.26723e-015 90 90   XYZ
    dof rx
    limits (0.0 90.0)
  end
  begin
     id 23
     name lthumb
     direction 0.707107 -6.34915e-011 0.707107   
     length 0.696978   
     axis -90 45 -2.25915e-014   XYZ
    dof rx rz
    limits (-45.0 45.0)
           (-45.0 45.0)
  end
  begin
     id 24 
     name rclavicle
     direction -0.939974 0.327078 0.0973096   
     length 3.10337  
     axis 0 0 0   XYZ 
    dof ry rz
    limits (-10.0 20.0)
           (-20.0 0.0)
  end
  begin
     id 25 
     name rhumerus
     direction -1 -4.48975e-011 1.83745e-027  
     length 5.13304   
     axis 180 30 90   XYZ
    dof rx ry rz
    limits (-90.0 60.0)
           (-90.0 90.0)
           (-90.0 90.0)
  end
  begin
     id 26 
     name rradius
     direction -1 -4.48977e-011 7.1775e-029   
     length 2.74305   
     axis 180 30 90   XYZ
    dof rx
    limits (-10.0 170.0)
  end
  begin
     id 27 
     name rwrist
     direction -1 -4.48977e-011 1.27963e-027   
     length 1.37152   
     axis -1.61767e-015 -90 -90   XYZ
    dof ry
    limits (-180.0 0.0)
  end
  begin
     id 28
     name rhand
     direction -1 -4.4888e-011 2.56782e-027   
     length 0.767976   
     axis -1.63363e-015 -90 -90   XYZ
    dof rx rz
    limits (-90.0 90.0)
           (-45.0 45.0)
  end
  begin
     id 29
     name rfingers
     direction -1 -4.48947e-011 5.12384e-027   
     length 0.619162   
     axis -3.26723e-015 -90 -90   XYZ
    dof rx
    limits (0.0 90.0)
  end
  begin
     id 30
     name rthumb
     direction -0.707107 -6.34857e-011 0.707107   
     length 0.888997   
     axis -90 -45 2.25915e-014   XYZ
    dof rx rz
    limits (-45.0 45.0)
           (-45.0 45.0)
  end
:hierarchy
  begin
    root lhipjoint rhipjoint lowerback
    lhipjoint lfemur
    lfemur ltibia
    ltibia lfoot
    lfoot ltoes
    rhipjoint rfemur
    rfemur rtibia
    rtibia rfoot
    rfoot rtoes
    lowerback upperback
    upperback thorax
    thorax lowerneck lclavicle rclavicle
    lowerneck upperneck
    upperneck head
    lclavicle lhumerus
    lhumerus lradius
    lradius lwrist
    lwrist lhand lthumb
    lhand lfingers
    rclavicle rhumerus
    rhumerus rradius
    rradius rwrist
    rwrist rhand rthumb
    rhand rfingers
  end

#!OML:ASF F:\VICON\USERDATA\INSTALL\rory3\rory3.ASF
:FULLY-SPECIFIED
:DEGREES
1006
root -0.129977 16.5083 -2.35248 9.78285 1.50116 0.340541
lowerback 25.2288 -1.82531 -5.03499
upperback 12.3899 -3.32287 1.33193
thorax 0.140675 -1.93821 5.10598
lowerneck 22.275 -24.5852 -25.4506
upperneck -31.9171 -34.0145 45.1096
head 1.08187 -20.9584 16.8217
rclavicle 4.6118e-014 -1.98785e-014
rhumerus 51.884 37.9753 -33.5185
rradius 61.4659
rwrist 15.6641
rhand -8.69688 8.83166
rfingers 7.12502
rthumb 17.2382 -20.4238
lclavicle 4.6118e-014 -1.98785e-014
lhumerus 43.5799 -23.8396 45.2819
lradius 45.1423
lwrist -10.0766
lhand 8.77614 23.5004
lfingers 7.12502
lthumb 33.9646 50.292
rfemur -36.138 0.857878 17.9291
rtibia 45.6544
rfoot -20.2172 -3.57435
rtoes -18.9866
lfemur -36.9012 -1.47279 -16.4158
ltibia 45.165
lfoot -17.3324 -1.7123
ltoes -21.2618
1007
root -0.121338 16.5033 -2.35237 9.82142 1.37789 0.208453
lowerback 24.3984 -1.80439 -5.0051
upperback 12.9159 -3.24776 1.3675
thorax 1.11832 -1.94727 5.04734
lowerneck 22.154 -24.7275 -25.0511
upperneck -32.3221 -33.9565 45.8514
head 1.11936 -21.1068 17.0328
rclavicle -7.15625e-014 3.26007e-014
rhumerus 52.5568 37.3273 -33.0243
rradius 61.3931
rwrist 15.628
rhand -8.52056 8.82895
rfingers 7.12502
rthumb 17.4079 -20.4115
lclavicle -7.15625e-014 3.26007e-014
lhumerus 44.0935 -23.4443 45.0752
lradius 45.1239
lwrist -10.0339
lhand 8.51693 23.6011
lfingers 7.12502
lthumb 33.7184 50.4469
rfemur -36.24 0.895348 18.0419
rtibia 45.7017
rfoot -20.1786 -3.45771
rtoes -18.6895
lfemur -37.0235 -1.32173 -16.3226
ltibia 45.3332
lfoot -17.4192 -1.58395
ltoes -22.0661
1008
root -0.112132 16.4995 -2.35459 9.82925 1.31278 0.181753
lowerback 24.5601 -1.80584 -5.121
upperback 12.8479 -3.27992 1.4374
thorax 0.983519 -1.96709 5.20744
lowerneck 22.2327 -24.7199 -24.9112
upperneck -32.2694 -33.9025 46.1054
head 1.15816 -21.1464 17.1329
rclavicle -8.34896e-015 2.38542e-015
rhumerus 52.9171 37.4591 -32.6058
rradius 61.298
rwrist 15.6056
rhand -8.50896 8.99954
rfingers 7.12502
rthumb 17.4191 -20.24
lclavicle -8.34896e-015 2.38542e-015
lhumerus 43.8444 -23.4467 45.2156
lradius 45.0858
lwrist -9.9887
lhand 8.33021 23.65
lfingers 7.12502
lthumb 33.5409 50.5345
rfemur -36.2911 0.86889 18.042
rtibia 45.739
rfoot -20.1923 -3.29
rtoes -18.3738
lfemur -37.1089 -1.2501 -16.3406
ltibia 45.4813
lfoot -17.3805 -1.71429
ltoes -21.2062
1009
root -0.104206 16.4966 -2.35607 9.79429 1.19972 0.229046
lowerback 24.7079 -1.73793 -5.22751
upperback 12.7773 -3.22285 1.47679
thorax 0.837613 -1.93965 5.30919
lowerneck 22.4347 -24.6877 -24.8775
upperneck -32.2596 -33.8534 46.4662
head 1.22359 -21.207 17.2942
rclavicle 4.13472e-014 6.75868e-015
rhumerus 53.0608 37.5398 -32.2568
rradius 61.208
rwrist 15.4733
rhand -8.64053 9.04142
rfingers 7.12502
rthumb 17.2924 -20.2093
lclavicle 4.13472e-014 6.75868e-015
lhumerus 43.756 -23.6595 45.2444
lradius 45.0687
lwrist -9.93435
lhand 8.34607 23.742
lfingers 7.12502
lthumb 33.556 50.6233
rfemur -36.3023 0.865769 17.9652
rtibia 45.7969
rfoot -20.2392 -3.2377
rtoes -18.7117
lfemur -37.1143 -1.20846 -16.4273
ltibia 45.6088
lfoot -17.4175 -1.8157
ltoes -20.3395
1010
root -0.0944481 16.4921 -2.35861 9.76368 1.14425 0.181195
lowerback 24.7575 -1.67767 -5.14423
upperback 12.8268 -3.12911 1.55182
thorax 0.856768 -1.89408 5.32413
lowerneck 22.422 -24.7558 -24.6982
upperneck -32.3811 -33.836 46.8494
head 1.27101 -21.2888 17.4045
rclavicle -4.49253e-014 2.18663e-014
rhumerus 53.1396 37.3748 -31.9431
rradius 61.2433
rwrist 15.3538
rhand -8.70049 9.04889
rfingers 7.12502
rthumb 17.2347 -20.2068
lclavicle -4.49253e-014 2.18663e-014
lhumerus 43.8921 -23.7551 45.3348
lradius 45.0155
lwrist -10.0504
lhand 8.63161 23.7825
lfingers 7.12502
lthumb 33.8273 50.6045
rfemur -36.3238 0.830579 17.988
rtibia 45.8536
rfoot -20.2807 -3.16642
rtoes -18.6779
lfemur -37.1495 -1.19958 -16.4087
ltibia 45.7461
lfoot -17.4927 -1.81843
ltoes -19.9075
1011
root -0.0855909 16.4837 -2.36294 9.76003 1.12942 0.0950258
lowerback 24.9462 -1.65143 -5.06803
upperback 12.8097 -3.08569 1.6486
thorax 0.743697 -1.86873 5.3874
lowerneck 22.2507 -24.8198 -24.4845
upperneck -32.4194 -33.7977 47.1108
head 1.31343 -21.3279 17.4495
rclavicle 4.77083e-015 3.57812e-015
rhumerus 53.3008 37.3196 -31.6012
rradius 61.2045
rwrist 15.2982
rhand -8.83093 9.0352
rfingers 7.12502
rthumb 17.1092 -20.2315
lclavicle 4.77083e-015 3.57812e-015
lhumerus 43.9022 -23.8129 45.5088
lradius 44.8692
lwrist -10.1681
lhand 8.73558 23.7331
lfingers 7.12502
lthumb 33.9261 50.5332
rfemur -36.3997 0.761796 18.069
rtibia 45.9297
rfoot -20.3136 -3.10208
rtoes -18.7533
lfemur -37.262 -1.18592 -16.3414
ltibia 45.9019
lfoot -17.578 -1.83331
ltoes -19.6592
1012
root -0.0792868 16.4778 -2.36546 9.79819 1.14886 -0.0661466
lowerback 25.3186 -1.66667 -4.93502
upperback 12.589 -3.09274 1.73383
thorax 0.315778 -1.8493 5.4335
lowerneck 22.1664 -24.8184 -24.2995
upperneck -32.2374 -33.74 47.1762
head 1.34226 -21.3177 17.4559
rclavicle -4.17448e-014 3.06128e-014
rhumerus 53.3493 37.5723 -31.4459
rradius 61.1819
rwrist 15.268
rhand -8.83151 9.0127
rfingers 7.12502
rthumb 17.1086 -20.254
lclavicle -4.17448e-014 3.06128e-014
lhumerus 43.5953 -24.0064 45.7765
lradius 44.6849
lwrist -10.369
lhand 8.90998 23.4259
lfingers 7.12502
lthumb 34.0918 50.1892
rfemur -36.4816 0.731698 18.2339
rtibia 45.9895
rfoot -20.3307 -3.1364
rtoes -19.0301
lfemur -37.4247 -1.15526 -16.1884
ltibia 46.0822
lfoot -17.66 -1.76097
ltoes -20.3353
